<?xml version="1.0" standalone="no"?>
<!DOCTYPE svg PUBLIC "-//W3C//DTD SVG 20010904//EN"
 "http://www.w3.org/TR/2001/REC-SVG-20010904/DTD/svg10.dtd">
<svg version="1.0" xmlns="http://www.w3.org/2000/svg"
 width="200.000000pt" height="200.000000pt" viewBox="0 0 200.000000 200.000000"
 preserveAspectRatio="xMidYMid meet">
<metadata>
Created by potrace 1.15, written by Peter Selinger 2001-2017
</metadata>
<g transform="translate(0.000000,200.000000) scale(0.100000,-0.100000)"
fill="#000000" stroke="none">
<path d="M148 1883 c-40 -25 -48 -54 -48 -169 l0 -105 345 -429 345 -429 0
-327 0 -326 23 6 c12 3 105 39 207 80 l185 74 3 247 2 247 345 429 345 428 0
106 c0 117 -11 153 -55 173 -19 9 -231 12 -848 12 -748 -1 -824 -2 -849 -17z
m1299 -118 c50 -21 72 -42 94 -90 27 -58 25 -140 -5 -199 l-24 -47 29 -15 c31
-16 34 -21 19 -44 -8 -13 -15 -12 -50 7 -34 18 -45 20 -80 11 -89 -23 -184 21
-216 99 -17 39 -18 140 -3 180 34 92 143 137 236 98z m-736 -5 c25 -14 49 -62
49 -100 0 -34 -46 -90 -74 -90 -21 0 -20 -14 0 -31 16 -13 81 -111 91 -136 4
-9 -4 -13 -28 -12 -31 0 -38 7 -81 75 -49 76 -73 94 -129 94 l-29 0 0 -85 0
-85 -30 0 -30 0 0 190 0 190 121 0 c66 0 129 -5 140 -10z m419 -15 l0 -25
-116 0 -115 0 3 -52 3 -53 103 -3 c101 -3 102 -3 102 -27 0 -25 0 -25 -105
-25 l-105 0 0 -60 0 -60 120 0 120 0 0 -25 0 -25 -145 0 -145 0 0 190 0 190
140 0 140 0 0 -25z"/>
<path d="M1344 1719 c-89 -25 -121 -172 -53 -245 27 -29 85 -47 108 -34 14 8
14 9 -1 10 -22 0 -24 38 -3 46 8 4 26 -1 40 -10 13 -9 27 -16 29 -16 15 0 36
66 36 112 0 102 -68 162 -156 137z"/>
<path d="M510 1665 l0 -55 73 0 c82 0 117 16 117 55 0 39 -35 55 -117 55 l-73
0 0 -55z"/>
</g>
</svg>
